<svg xmlns="http://www.w3.org/2000/svg" version="1.1" xmlns:xlink="http://www.w3.org/1999/xlink" xmlns:svgjs="http://svgjs.dev/svgjs" width="2000" height="1500" viewBox="0 0 2000 1500"><rect width="2000" height="1500" fill="#ff5858"></rect><g transform="matrix(0.49407114624505927,0,0,0.49407114624505927,506.80232151561825,250.4048582995951)"><svg viewBox="0 0 244 247" data-background-color="#ff5858" preserveAspectRatio="xMidYMid meet" height="2024" width="2000" xmlns="http://www.w3.org/2000/svg" xmlns:xlink="http://www.w3.org/1999/xlink"><g id="tight-bounds" transform="matrix(1,0,0,1,-0.21568363533614843,-0.09999999999999432)"><svg viewBox="0 0 244.43135999999998 247.2" height="247.2" width="244.43135999999998"><g><svg></svg></g><g><svg viewBox="0 0 244.43135999999998 247.2" height="247.2" width="244.43135999999998"><g transform="matrix(1,0,0,1,0,99.62491345691586)"><svg viewBox="0 0 244.43135999999998 47.95017308616826" height="47.95017308616826" width="244.43135999999998"><g><svg viewBox="0 0 244.43135999999998 47.95017308616826" height="47.95017308616826" width="244.43135999999998"><g><svg viewBox="0 0 244.43135999999998 47.95017308616826" height="47.95017308616826" width="244.43135999999998"><g><svg viewBox="0 0 244.43135999999998 47.95017308616826" height="47.95017308616826" width="244.43135999999998"><g id="textblocktransform"><svg viewBox="0 0 244.43135999999998 47.95017308616826" height="47.95017308616826" width="244.43135999999998" id="textblock"><g><svg viewBox="0 0 244.43135999999998 47.95017308616826" height="47.95017308616826" width="244.43135999999998"><g transform="matrix(1,0,0,1,0,0)"><svg width="244.43135999999998" viewBox="0.30000001192092896 -37.5 245.42999267578125 48.150001525878906" height="47.95017308616826" data-palette-color="#ffffff"><path d="M28.35 0L23.35 0 20.75-8.65 7.7-8.65 5.1 0 0.3 0 11.35-34.45 17.35-34.45 28.35 0ZM14.25-30.5L8.85-12.5 19.6-12.5 14.25-30.5ZM45.45-26.95Q49.95-26.95 52.6-23.33 55.25-19.7 55.25-13.2L55.25-13.2Q55.25-9.1 54-5.98 52.75-2.85 50.4-1.13 48.05 0.6 44.9 0.6L44.9 0.6Q40.75 0.6 37.9-2.9L37.9-2.9 37.45 0 33.4 0 33.4-36.95 38-37.5 38-23.05Q40.85-26.95 45.45-26.95L45.45-26.95ZM43.8-3.05Q46.85-3.05 48.57-5.53 50.3-8 50.3-13.2L50.3-13.2Q50.3-18.55 48.7-20.93 47.1-23.3 44.15-23.3L44.15-23.3Q40.65-23.3 38-19.2L38-19.2 38-6.6Q39.05-4.95 40.57-4 42.1-3.05 43.8-3.05L43.8-3.05ZM75.5-26.95Q79.09-26.95 81.12-24.8 83.15-22.65 83.15-18.9L83.15-18.9 83.15 0 78.55 0 78.55-18.25Q78.55-21.05 77.47-22.2 76.4-23.35 74.34-23.35L74.34-23.35Q72.3-23.35 70.7-22.15 69.09-20.95 67.7-18.75L67.7-18.75 67.7 0 63.1 0 63.1-36.9 67.7-37.4 67.7-22.7Q70.8-26.95 75.5-26.95L75.5-26.95ZM111.74-26.35L102.94 0.15Q101.39 4.75 98.62 7.43 95.84 10.1 90.69 10.65L90.69 10.65 90.19 7.05Q92.79 6.6 94.34 5.75 95.89 4.9 96.82 3.58 97.74 2.25 98.54 0L98.54 0 96.99 0 88.14-26.35 93.04-26.35 100.09-3.35 106.99-26.35 111.74-26.35ZM134.74-6.15Q134.74-4.55 135.29-3.78 135.84-3 136.94-2.6L136.94-2.6 135.89 0.6Q133.84 0.35 132.59-0.55 131.34-1.45 130.74-3.35L130.74-3.35Q128.09 0.6 122.89 0.6L122.89 0.6Q118.99 0.6 116.74-1.6 114.49-3.8 114.49-7.35L114.49-7.35Q114.49-11.55 117.52-13.8 120.54-16.05 126.09-16.05L126.09-16.05 130.14-16.05 130.14-18Q130.14-20.8 128.79-22 127.44-23.2 124.64-23.2L124.64-23.2Q121.74-23.2 117.54-21.8L117.54-21.8 116.39-25.15Q121.29-26.95 125.49-26.95L125.49-26.95Q130.14-26.95 132.44-24.68 134.74-22.4 134.74-18.2L134.74-18.2 134.74-6.15ZM123.94-2.85Q127.89-2.85 130.14-6.95L130.14-6.95 130.14-13 126.69-13Q119.39-13 119.39-7.6L119.39-7.6Q119.39-5.25 120.54-4.05 121.69-2.85 123.94-2.85L123.94-2.85ZM156.59-26.95Q160.19-26.95 162.21-24.8 164.24-22.65 164.24-18.9L164.24-18.9 164.24 0 159.64 0 159.64-18.25Q159.64-21.05 158.59-22.2 157.54-23.35 155.49-23.35L155.49-23.35Q153.39-23.35 151.79-22.15 150.19-20.95 148.79-18.7L148.79-18.7 148.79 0 144.19 0 144.19-26.35 148.14-26.35 148.54-22.45Q149.94-24.55 152.01-25.75 154.09-26.95 156.59-26.95L156.59-26.95ZM180.64-26.95Q183.34-26.95 185.49-26.2 187.64-25.45 189.59-23.95L189.59-23.95 187.64-21.05Q185.84-22.2 184.21-22.75 182.59-23.3 180.79-23.3L180.79-23.3Q178.54-23.3 177.24-22.38 175.94-21.45 175.94-19.85L175.94-19.85Q175.94-18.25 177.16-17.35 178.39-16.45 181.59-15.6L181.59-15.6Q185.99-14.5 188.16-12.6 190.34-10.7 190.34-7.4L190.34-7.4Q190.34-3.5 187.31-1.45 184.29 0.6 179.94 0.6L179.94 0.6Q173.94 0.6 169.99-2.85L169.99-2.85 172.44-5.65Q175.79-3.1 179.84-3.1L179.84-3.1Q182.44-3.1 183.96-4.17 185.49-5.25 185.49-7.1L185.49-7.1Q185.49-8.45 184.94-9.28 184.39-10.1 183.04-10.73 181.69-11.35 179.09-12.05L179.09-12.05Q174.89-13.15 173.01-15 171.14-16.85 171.14-19.7L171.14-19.7Q171.14-21.75 172.36-23.43 173.59-25.1 175.76-26.03 177.94-26.95 180.64-26.95L180.64-26.95ZM209.23-26.95Q212.83-26.95 214.86-24.8 216.88-22.65 216.88-18.9L216.88-18.9 216.88 0 212.28 0 212.28-18.25Q212.28-21.05 211.21-22.2 210.13-23.35 208.08-23.35L208.08-23.35Q206.03-23.35 204.43-22.15 202.83-20.95 201.43-18.75L201.43-18.75 201.43 0 196.83 0 196.83-36.9 201.43-37.4 201.43-22.7Q204.53-26.95 209.23-26.95L209.23-26.95ZM245.73-26.35L245.73 0 241.78 0 241.43-4.1Q239.93-1.65 237.98-0.53 236.03 0.6 233.23 0.6L233.23 0.6Q229.78 0.6 227.83-1.5 225.88-3.6 225.88-7.45L225.88-7.45 225.88-26.35 230.48-26.35 230.48-7.95Q230.48-5.25 231.43-4.13 232.38-3 234.53-3L234.53-3Q238.38-3 241.13-7.55L241.13-7.55 241.13-26.35 245.73-26.35Z" opacity="1" transform="matrix(1,0,0,1,0,0)" fill="#ffffff" class="wordmark-text-0" data-fill-palette-color="primary" id="text-0"></path></svg></g></svg></g></svg></g></svg></g><g></g></svg></g></svg></g></svg></g><path d="M0 93.625L0 1 244.431 1 244.431 93.625 240.107 93.625 240.107 5.324 4.324 5.324 4.324 93.625 0 93.625M0 153.575L0 246.2 244.431 246.2 244.431 153.575 240.107 153.575 240.107 241.876 4.324 241.876 4.324 153.575 0 153.575" fill="#ffffff" stroke="transparent" data-fill-palette-color="primary"></path></svg></g><defs></defs></svg><rect width="244.43135999999998" height="247.2" fill="none" stroke="none" visibility="hidden"></rect></g></svg></g></svg>